<svg width="73" height="72" viewBox="0 0 73 72" fill="none" xmlns="http://www.w3.org/2000/svg">
<g id="Group 4">
<circle id="Ellipse 1" cx="36.4999" cy="35.9999" r="35.9999" fill="#C83F49"/>
<g id="Mask group">
<mask id="mask0_2_108506" style="mask-type:alpha" maskUnits="userSpaceOnUse" x="0" y="0" width="73" height="72">
<circle id="Ellipse 2" cx="36.4999" cy="35.9999" r="35.9999" fill="#C83F49"/>
</mask>
<g mask="url(#mask0_2_108506)">
<g id="Group 3">
<path id="Vector" d="M71.0558 56.3531L88.9956 45.9035L85.8197 40.3539L67.4867 51.0324C66.7822 50.1464 66.0404 49.2913 65.2632 48.4694L80.3872 33.2111L75.8958 28.6798L60.5145 44.1975C59.6557 43.5424 58.7705 42.9233 57.8612 42.3416L68.8159 23.199L63.3151 19.995L52.2337 39.3588C51.2741 38.947 50.2985 38.5743 49.3092 38.2416L55.0704 16.5495L48.935 14.8909L43.138 36.7181C42.1263 36.5552 41.1087 36.4323 40.0874 36.3497V13.7158H33.7356V36.3497C32.7144 36.4323 31.6968 36.5552 30.6851 36.7181L24.8879 14.891L18.7525 16.5496L24.5138 38.2416C23.5245 38.5743 22.5489 38.9471 21.5893 39.3589L10.5079 19.9949L5.00712 23.199L15.9618 42.3416C15.0525 42.9233 14.1673 43.5425 13.3084 44.1975L-2.07276 28.6798L-6.56416 33.2111L8.55982 48.4694C7.78269 49.2913 7.04086 50.1464 6.33637 51.0324L-11.9968 40.3539L-15.1726 45.9035L2.76723 56.3531C2.18354 57.3968 1.64736 58.4668 1.16036 59.5598L-18.5877 54.2213L-20.2318 60.4112L-0.966982 65.619C-1.28808 66.845 -1.55018 68.0859 -1.75237 69.3374H-21.3965V75.7456H95.2195V69.3374H75.5754C75.3732 68.0859 75.1111 66.845 74.79 65.619L94.0548 60.4112L92.4108 54.2213L72.6627 59.5599C72.1757 58.4669 71.6395 57.3968 71.0558 56.3531Z" fill="#DB962F"/>
<path id="Vector_2" d="M40.6328 53.4143C40.6328 54.0724 40.8942 54.7035 41.3595 55.1688C41.8248 55.6341 42.456 55.8955 43.114 55.8955C43.7721 55.8955 44.4032 55.6341 44.8685 55.1688C45.3338 54.7035 45.5952 54.0724 45.5952 53.4143C45.5952 52.7562 45.3338 52.1251 44.8685 51.6598C44.4032 51.1945 43.7721 50.9331 43.114 50.9331C42.456 50.9331 41.8248 51.1945 41.3595 51.6598C40.8942 52.1251 40.6328 52.7562 40.6328 53.4143Z" fill="black"/>
<path id="Vector_3" d="M28.2266 53.4143C28.2266 53.7401 28.2907 54.0628 28.4154 54.3638C28.5401 54.6648 28.7229 54.9384 28.9533 55.1688C29.1837 55.3992 29.4572 55.5819 29.7582 55.7066C30.0593 55.8313 30.3819 55.8955 30.7078 55.8955C31.0336 55.8955 31.3562 55.8313 31.6573 55.7066C31.9583 55.5819 32.2318 55.3992 32.4622 55.1688C32.6926 54.9384 32.8754 54.6648 33.0001 54.3638C33.1248 54.0628 33.1889 53.7401 33.1889 53.4143C33.1889 53.0885 33.1248 52.7658 33.0001 52.4648C32.8754 52.1638 32.6926 51.8902 32.4622 51.6598C32.2318 51.4294 31.9583 51.2467 31.6573 51.122C31.3562 50.9973 31.0336 50.9331 30.7078 50.9331C30.3819 50.9331 30.0593 50.9973 29.7582 51.122C29.4572 51.2467 29.1837 51.4294 28.9533 51.6598C28.7229 51.8902 28.5401 52.1638 28.4154 52.4648C28.2907 52.7658 28.2266 53.0885 28.2266 53.4143Z" fill="black"/>
<path id="Vector (Stroke)" fill-rule="evenodd" clip-rule="evenodd" d="M30.8022 59.2642C31.0016 58.7282 31.4807 58.3774 32.013 58.3774L41.8072 58.3781C42.3395 58.3782 42.8185 58.7291 43.0179 59.265C43.2173 59.8009 43.0971 60.4145 42.7141 60.816C39.5037 64.1815 34.3166 64.1809 31.1059 60.8153C30.7229 60.4138 30.6027 59.8001 30.8022 59.2642Z" fill="black"/>
<path id="Vector_4" fill-rule="evenodd" clip-rule="evenodd" d="M26.9862 103.937V68.3025H33.1892V108.002H20.7832L26.9862 103.937Z" fill="#DB962F"/>
<path id="Vector_5" fill-rule="evenodd" clip-rule="evenodd" d="M46.8358 103.937V68.3025H40.6328V108.002H53.0388L46.8358 103.937Z" fill="#DB962F"/>
<path id="Vector (Stroke)_2" fill-rule="evenodd" clip-rule="evenodd" d="M50.5586 73.935V70.7832H56.1388V73.935C56.1388 80.1941 61.4165 85.268 67.9269 85.268V90.6327C58.3346 90.6327 50.5586 83.1569 50.5586 73.935Z" fill="#DB962F"/>
</g>
</g>
</g>
</g>
</svg>
